<?xml version="1.0" encoding="UTF-8"?><svg xmlns="http://www.w3.org/2000/svg" viewBox="0 0 1343.65 393.74"><defs><style>.cls-1{letter-spacing:-.04em;}.cls-2{fill:#ea5353;}.cls-3{fill:#e6bf71;}.cls-4{fill:#486060;}.cls-5{fill:#2c3333;}.cls-5,.cls-6{font-family:Cheetah-Kick---Personal-Use, 'Cheetah Kick - Personal Use';font-size:300.88px;}.cls-6{fill:#fff;}.cls-7{letter-spacing:-.02em;}.cls-8{letter-spacing:-.1em;}.cls-9{isolation:isolate;}.cls-10{mix-blend-mode:soft-light;opacity:.56;}</style></defs><g class="cls-9"><g id="Layer_2"><g id="TEXT"><g><text class="cls-6" transform="translate(0 236.04)"><tspan class="cls-7" x="0" y="0">V</tspan><tspan x="176.92" y="0">intag</tspan><tspan class="cls-8" x="598.14" y="0">e</tspan><tspan class="cls-1" x="648.38" y="0">D</tspan><tspan x="863.81" y="0">esigns</tspan></text><g class="cls-10"><text class="cls-5" transform="translate(40.86 292.04)"><tspan class="cls-7" x="0" y="0">V</tspan><tspan x="176.92" y="0">intag</tspan><tspan class="cls-8" x="598.14" y="0">e</tspan><tspan class="cls-1" x="648.38" y="0">D</tspan><tspan x="863.81" y="0">esigns</tspan></text><text class="cls-5" transform="translate(39.4 290.04)"><tspan class="cls-7" x="0" y="0">V</tspan><tspan x="176.92" y="0">intag</tspan><tspan class="cls-8" x="598.14" y="0">e</tspan><tspan class="cls-1" x="648.38" y="0">D</tspan><tspan x="863.81" y="0">esigns</tspan></text><text class="cls-5" transform="translate(37.94 288.04)"><tspan class="cls-7" x="0" y="0">V</tspan><tspan x="176.92" y="0">intag</tspan><tspan class="cls-8" x="598.14" y="0">e</tspan><tspan class="cls-1" x="648.38" y="0">D</tspan><tspan x="863.81" y="0">esigns</tspan></text><text class="cls-5" transform="translate(36.49 286.04)"><tspan class="cls-7" x="0" y="0">V</tspan><tspan x="176.92" y="0">intag</tspan><tspan class="cls-8" x="598.14" y="0">e</tspan><tspan class="cls-1" x="648.38" y="0">D</tspan><tspan x="863.81" y="0">esigns</tspan></text><text class="cls-5" transform="translate(35.03 284.04)"><tspan class="cls-7" x="0" y="0">V</tspan><tspan x="176.92" y="0">intag</tspan><tspan class="cls-8" x="598.14" y="0">e</tspan><tspan class="cls-1" x="648.38" y="0">D</tspan><tspan x="863.81" y="0">esigns</tspan></text><text class="cls-5" transform="translate(33.57 282.04)"><tspan class="cls-7" x="0" y="0">V</tspan><tspan x="176.92" y="0">intag</tspan><tspan class="cls-8" x="598.14" y="0">e</tspan><tspan class="cls-1" x="648.38" y="0">D</tspan><tspan x="863.81" y="0">esigns</tspan></text><text class="cls-5" transform="translate(32.11 280.04)"><tspan class="cls-7" x="0" y="0">V</tspan><tspan x="176.92" y="0">intag</tspan><tspan class="cls-8" x="598.14" y="0">e</tspan><tspan class="cls-1" x="648.38" y="0">D</tspan><tspan x="863.81" y="0">esigns</tspan></text><text class="cls-5" transform="translate(30.65 278.04)"><tspan class="cls-7" x="0" y="0">V</tspan><tspan x="176.92" y="0">intag</tspan><tspan class="cls-8" x="598.14" y="0">e</tspan><tspan class="cls-1" x="648.38" y="0">D</tspan><tspan x="863.81" y="0">esigns</tspan></text><text class="cls-5" transform="translate(29.19 276.04)"><tspan class="cls-7" x="0" y="0">V</tspan><tspan x="176.92" y="0">intag</tspan><tspan class="cls-8" x="598.14" y="0">e</tspan><tspan class="cls-1" x="648.38" y="0">D</tspan><tspan x="863.81" y="0">esigns</tspan></text><text class="cls-5" transform="translate(27.73 274.04)"><tspan class="cls-7" x="0" y="0">V</tspan><tspan x="176.92" y="0">intag</tspan><tspan class="cls-8" x="598.14" y="0">e</tspan><tspan class="cls-1" x="648.38" y="0">D</tspan><tspan x="863.81" y="0">esigns</tspan></text><text class="cls-5" transform="translate(26.27 272.04)"><tspan class="cls-7" x="0" y="0">V</tspan><tspan x="176.92" y="0">intag</tspan><tspan class="cls-8" x="598.14" y="0">e</tspan><tspan class="cls-1" x="648.38" y="0">D</tspan><tspan x="863.81" y="0">esigns</tspan></text><text class="cls-5" transform="translate(24.81 270.04)"><tspan class="cls-7" x="0" y="0">V</tspan><tspan x="176.92" y="0">intag</tspan><tspan class="cls-8" x="598.14" y="0">e</tspan><tspan class="cls-1" x="648.38" y="0">D</tspan><tspan x="863.81" y="0">esigns</tspan></text><text class="cls-5" transform="translate(23.35 268.04)"><tspan class="cls-7" x="0" y="0">V</tspan><tspan x="176.92" y="0">intag</tspan><tspan class="cls-8" x="598.14" y="0">e</tspan><tspan class="cls-1" x="648.38" y="0">D</tspan><tspan x="863.81" y="0">esigns</tspan></text><text class="cls-5" transform="translate(21.89 266.04)"><tspan class="cls-7" x="0" y="0">V</tspan><tspan x="176.92" y="0">intag</tspan><tspan class="cls-8" x="598.14" y="0">e</tspan><tspan class="cls-1" x="648.38" y="0">D</tspan><tspan x="863.81" y="0">esigns</tspan></text><text class="cls-5" transform="translate(20.43 264.04)"><tspan class="cls-7" x="0" y="0">V</tspan><tspan x="176.92" y="0">intag</tspan><tspan class="cls-8" x="598.14" y="0">e</tspan><tspan class="cls-1" x="648.38" y="0">D</tspan><tspan x="863.81" y="0">esigns</tspan></text><text class="cls-5" transform="translate(18.97 262.04)"><tspan class="cls-7" x="0" y="0">V</tspan><tspan x="176.92" y="0">intag</tspan><tspan class="cls-8" x="598.14" y="0">e</tspan><tspan class="cls-1" x="648.38" y="0">D</tspan><tspan x="863.81" y="0">esigns</tspan></text><text class="cls-5" transform="translate(17.51 260.04)"><tspan class="cls-7" x="0" y="0">V</tspan><tspan x="176.92" y="0">intag</tspan><tspan class="cls-8" x="598.14" y="0">e</tspan><tspan class="cls-1" x="648.38" y="0">D</tspan><tspan x="863.81" y="0">esigns</tspan></text><text class="cls-5" transform="translate(16.05 258.04)"><tspan class="cls-7" x="0" y="0">V</tspan><tspan x="176.92" y="0">intag</tspan><tspan class="cls-8" x="598.14" y="0">e</tspan><tspan class="cls-1" x="648.38" y="0">D</tspan><tspan x="863.81" y="0">esigns</tspan></text><text class="cls-5" transform="translate(14.59 256.04)"><tspan class="cls-7" x="0" y="0">V</tspan><tspan x="176.92" y="0">intag</tspan><tspan class="cls-8" x="598.14" y="0">e</tspan><tspan class="cls-1" x="648.38" y="0">D</tspan><tspan x="863.81" y="0">esigns</tspan></text><text class="cls-5" transform="translate(13.13 254.04)"><tspan class="cls-7" x="0" y="0">V</tspan><tspan x="176.92" y="0">intag</tspan><tspan class="cls-8" x="598.14" y="0">e</tspan><tspan class="cls-1" x="648.38" y="0">D</tspan><tspan x="863.81" y="0">esigns</tspan></text><text class="cls-5" transform="translate(11.68 252.04)"><tspan class="cls-7" x="0" y="0">V</tspan><tspan x="176.92" y="0">intag</tspan><tspan class="cls-8" x="598.14" y="0">e</tspan><tspan class="cls-1" x="648.38" y="0">D</tspan><tspan x="863.81" y="0">esigns</tspan></text><text class="cls-5" transform="translate(10.22 250.04)"><tspan class="cls-7" x="0" y="0">V</tspan><tspan x="176.92" y="0">intag</tspan><tspan class="cls-8" x="598.14" y="0">e</tspan><tspan class="cls-1" x="648.38" y="0">D</tspan><tspan x="863.81" y="0">esigns</tspan></text><text class="cls-5" transform="translate(8.76 248.04)"><tspan class="cls-7" x="0" y="0">V</tspan><tspan x="176.92" y="0">intag</tspan><tspan class="cls-8" x="598.14" y="0">e</tspan><tspan class="cls-1" x="648.38" y="0">D</tspan><tspan x="863.81" y="0">esigns</tspan></text><text class="cls-5" transform="translate(7.3 246.04)"><tspan class="cls-7" x="0" y="0">V</tspan><tspan x="176.92" y="0">intag</tspan><tspan class="cls-8" x="598.14" y="0">e</tspan><tspan class="cls-1" x="648.38" y="0">D</tspan><tspan x="863.81" y="0">esigns</tspan></text><text class="cls-5" transform="translate(5.84 244.04)"><tspan class="cls-7" x="0" y="0">V</tspan><tspan x="176.92" y="0">intag</tspan><tspan class="cls-8" x="598.14" y="0">e</tspan><tspan class="cls-1" x="648.38" y="0">D</tspan><tspan x="863.81" y="0">esigns</tspan></text><text class="cls-5" transform="translate(4.38 242.04)"><tspan class="cls-7" x="0" y="0">V</tspan><tspan x="176.92" y="0">intag</tspan><tspan class="cls-8" x="598.14" y="0">e</tspan><tspan class="cls-1" x="648.38" y="0">D</tspan><tspan x="863.81" y="0">esigns</tspan></text><text class="cls-5" transform="translate(2.92 240.04)"><tspan class="cls-7" x="0" y="0">V</tspan><tspan x="176.92" y="0">intag</tspan><tspan class="cls-8" x="598.14" y="0">e</tspan><tspan class="cls-1" x="648.38" y="0">D</tspan><tspan x="863.81" y="0">esigns</tspan></text><text class="cls-5" transform="translate(1.46 238.04)"><tspan class="cls-7" x="0" y="0">V</tspan><tspan x="176.92" y="0">intag</tspan><tspan class="cls-8" x="598.14" y="0">e</tspan><tspan class="cls-1" x="648.38" y="0">D</tspan><tspan x="863.81" y="0">esigns</tspan></text><text class="cls-5" transform="translate(0 236.04)"><tspan class="cls-7" x="0" y="0">V</tspan><tspan x="176.92" y="0">intag</tspan><tspan class="cls-8" x="598.14" y="0">e</tspan><tspan class="cls-1" x="648.38" y="0">D</tspan><tspan x="863.81" y="0">esigns</tspan></text></g><g><path class="cls-3" d="M82.15,284.1c-.79,0-1.59-.06-2.38-.17-.12-.02-.24-.04-.35-.07-4.6-1.08-11.36-3.22-17.05-9.28-9.86-10.09-22.16-35.4,6.9-90.94,19.42-37.29,44.8-88.17,40.98-99.38-.28-.83-.68-1.25-1.51-1.64-.37-.17-1.44-.57-3.42-.57-2.91,0-29.11,1.55-53.54,55.17-16.1,34.88-5.73,48.61,1.89,53.68,1.97,1.31,2.91,3.88,2.24,6.1-.6,2-2.4,3.33-4.46,3.33-4.27,0-12.22,0-19.88-3.31-15.04-5.91-23.25-21.53-21.41-40.78,4.35-41.87,42.61-73.19,44.77-74.92,4.13-3.47,12.71-9.82,24.09-13.62,6.26-2.27,13.21-3.52,19.57-3.52s12.09,1.25,16.66,3.73c2.9,1.38,34.11,17.31,19.66,54.07-2.67,6.71-7.07,15.97-12.16,26.69-11.85,24.95-28.19,59.36-34.3,86.64,.97-1.75,2.11-3.74,3.44-6.03,11.21-20.57,35.79-49.92,36.83-51.16,18.01-21.1,30.14-39.12,37.12-55.1,8.92-20.43,9.44-37.21,1.62-51.3-.86-1.4-1.04-3.08-.5-4.67,.58-1.69,1.92-3.03,3.57-3.58,.27-.09,.54-.15,.82-.18,2.86-.32,5.54-.47,8.19-.47,13.84,0,24.05,4.3,29.52,12.43,6.77,10.06,6.01,25.5-2.27,45.88-13.47,32.55-36.67,56.64-55.3,76-1.74,1.81-3.44,3.58-5.08,5.29-.03,.03-.06,.06-.09,.09-.16,.16-16.56,16.31-32.14,36.31-7.13,9.62-16.2,24.43-20.1,36.94-.01,.04-.03,.09-.04,.13-1.83,5.23-6.16,8.23-11.89,8.23Z"/><path class="cls-3" d="M182.93,244.56c-.26,0-.51,0-.76-.01-7.52-.26-13.54-3.27-17.39-8.7-4.91-6.93-5.85-17.42-2.52-28.08,4.84-15.13,13.05-26.85,13.77-27.86,9.5-14.14,24.12-37.63,25.55-44.56,.03-.16,.07-.31,.12-.46,.8-2.4,2.98-4.02,5.42-4.02,.41,0,.82,.05,1.22,.14,.71,.09,1.76,.27,3,.65-1-3.21-1.14-7.79,1.67-13.75,1.5-3.25,6.01-8.81,13.32-8.81,.88,0,1.79,.08,2.69,.25,4.78,.73,8.58,3.9,10.16,8.49,1.8,5.2,.49,11.19-3.33,15.28-3.66,4.26-8.5,6.72-13.33,6.78,.51,.74,1.01,1.53,1.48,2.39,1.05,1.75,7.06,13.18-3.33,30.81l-.06,.1c-.08,.13-8.3,13.2-18.19,26.98-8.03,11.57-6.81,15.3-6.64,15.69,.15,.35,.47,.49,.68,.54,5.62-.34,20.25-16.28,34.29-37.33,1.37-2.06,3.52-3.29,5.73-3.29h4.81c1.69,0,3.26,.91,4.2,2.43,.94,1.52,1.05,3.34,.29,4.86-17.96,35.63-44.39,61.49-62.85,61.49h0Z"/><path class="cls-3" d="M290.34,244.56c-.26,0-.51,0-.76-.01-7.37-.26-13.29-3.24-17.09-8.61-4.92-6.95-5.86-17.48-2.51-28.17,4.51-15.05,12.69-27.05,13.44-28.12,2.41-3.7,4.23-6.36,6-8.94,1.1-1.6,2.16-3.16,3.32-4.89,.54-.82,1-1.56,1.4-2.22-5.55,4.76-14.89,15.65-26.82,35.95-8.44,14.06-14.8,27.65-17.85,34.5-.04,.08-.07,.16-.12,.24-2.97,5.64-7.48,8.51-13.4,8.51-.48,0-.96-.02-1.43-.05-3.51-.04-6.05-1.42-8.08-2.78-.08-.05-.15-.11-.23-.16-7.27-5.61-14.07-17.38-5.22-41.55,2.67-7.72,5.92-14.15,12.4-24.51,.02-.03,.04-.06,.05-.09,9.4-14.22,23.86-37.78,25.54-45.01,.3-2.63,2.59-4.62,5.47-4.62,.26,0,.53,.03,.78,.08,2.96,.59,10.29,2.92,14.54,11.8,.41,.83,3.31,7.15,1.77,16.14,1.17-1.3,2.41-2.63,3.71-3.97,11.69-12,22.23-18.09,31.32-18.09,4.81,0,9.12,1.68,12.82,4.99,10.72,9.62,9.16,25.5-4.27,43.58-.08,.12-9.29,12.62-16.62,24.93-5.13,8.38-5.26,12.13-4.9,12.78h0s.28,.1,.75,.16c0,0,.04,0,.08,0,3.27,0,14.04-7.87,33.71-37.36,1.39-2.09,3.59-3.29,6.04-3.29h4.51c1.69,0,3.26,.91,4.2,2.43,.94,1.52,1.05,3.34,.29,4.86-17.67,35.63-44.11,61.49-62.85,61.49Z"/><path class="cls-3" d="M343.37,249.67c-5.24,0-10.81-1.3-14.89-3.48-.07-.04-.14-.08-.21-.12-10.93-6.7-10.15-19.69-10.02-21.15,.6-10.45,5.13-22.22,14.7-38.17,11.69-19.49,32.49-47.86,32.7-48.15,6.44-9.02,12.07-18.42,16.86-26.81-2.73-1.75-4.13-3.9-4.85-5.64-2.43-5.84,.57-11.82,.92-12.48,.69-1.32,2.06-2.13,3.54-2.13,.05,0,.11,0,.16,0,1.36,.06,2.59,.8,3.28,1.95,.44,.23,1.97,.83,6.1,1,7.31-15.5,10.86-26.42,11.45-30.01,.18-3.59,3.03-6.35,6.64-6.35,1.01,0,2.03,.24,2.96,.68,20.05,9.04,28.67,18.81,27.07,31.09,9.58-1.22,19-2.24,26.03-2.24,3.2,0,5.73,.21,7.73,.65,7.52,1.58,11.42,8.2,9.68,16.47-1.03,5.16-4.03,9.87-4.16,10.06-.74,1.15-2.01,1.84-3.37,1.84-.03,0-.07,0-.1,0-1.4-.04-2.67-.8-3.37-2.01-.08-.11-2.67-3.27-23.72-3.27-5.57,0-12,.21-19.61,.65-.16,.23-.32,.46-.47,.68-.5,.71-.97,1.39-1.35,2.02-.06,.09-.12,.19-.18,.28-.28,.39-27.9,38.79-41.35,55.53-2.12,2.7-4.22,5.35-6.27,7.92-10.37,13.06-19.33,24.33-23.92,34.01-2.15,4.65-1.47,6.35-1.21,6.76,.58,.9,2.55,1.49,5.03,1.49,.96,0,1.64-.09,1.65-.09,.14-.02,.29-.03,.43-.04,.55-.02,5.78-.64,21.33-17.76,8.97-9.87,17.02-20.51,19.01-23.69,.02-.03,.04-.07,.06-.1,1.31-1.97,3.74-3.29,6.04-3.29h4.51c1.76,0,3.35,.88,4.26,2.35,.92,1.49,1,3.38,.22,4.95-19.71,39.73-49.57,63.4-68.88,66.25-1.34,.22-2.85,.34-4.43,.34Z"/><path class="cls-3" d="M457.03,244.55c-4.08,0-7.67-1.54-10.38-4.46-3.65-3.92-5.27-9.82-5.95-15.21-8.81,10.01-18.06,15.07-27.62,15.07h0c-1.87,0-3.76-.2-5.63-.61-7.1-1.67-12.05-5.54-14.77-11.53-8.23-18.11,8.36-49.78,9.07-51.12,17.86-34.17,46.46-52.62,64.29-52.62,2.94,0,5.54,.51,7.72,1.53,4.71,2.07,8.02,5.38,9.9,9.87,.4-.41,.77-.78,1.11-1.11,1.92-2.26,5.06-3.71,8.08-3.71h22.57c2.37,0,4.43,1.52,5.11,3.79,.6,1.97-.03,4.04-1.56,5.32-5.44,5.46-30.77,31.73-41.99,58.42-5.02,11.66-5.12,16.43-4.88,18.04,6.18-1.79,20.04-17.17,33.37-37.16,1.4-2.09,3.59-3.29,6.04-3.29h4.51c1.69,0,3.25,.91,4.2,2.43s1.05,3.34,.29,4.86c-20.35,40.37-47.32,61.48-63.45,61.48Zm10.95-93.34c-.51,0-3.34,.25-9.01,5.22-5.31,4.66-11.23,11.75-17.59,21.08-16.63,24.22-18.99,33.61-19.18,36.68,2.9-.64,8.08-3.5,16.02-13.71,.54-.73,1.13-1.54,1.72-2.36,1.21-1.68,2.46-3.41,3.74-4.92,8.03-10.53,15.64-22.31,20.1-29.86,2.23-4.02,3.21-6.8,3.8-8.46,.14-.38,.25-.72,.36-1,.36-1.46,.26-2.33,.15-2.67-.04,0-.08,0-.13,0Z"/><path class="cls-3" d="M502.88,307.75c-5.44,0-10.86-1.37-16.09-4.07-5.95-3.08-10.29-8.97-11.62-15.74-1.24-6.32-.43-16.51,10.41-29.22,.57-.67,11.93-13.82,31.96-18.75-.12,0-.37,0-.37,0-1.88,0-3.79-.21-5.66-.63-7.16-1.66-12.16-5.56-14.89-11.6-8.21-18.13,8.52-49.72,9.23-51.06,10.63-20.33,23.51-32.67,32.44-39.44,11.04-8.37,22.54-13.17,31.55-13.17,2.93,0,5.52,.51,7.71,1.53,4.68,2.06,8.1,5.46,9.99,9.78,.42-.43,.81-.81,1.15-1.15,2.31-2.31,5.13-3.58,7.94-3.58h22.87c2.21,0,4.15,1.49,4.82,3.71,.61,2.01-.02,4.11-1.56,5.4-8.07,8.14-28.81,33.81-39.29,58.73-.04,.09-2.69,6.29-4.43,11.21-.01,.04-.03,.08-.04,.12-.4,1.02-.92,2.44-1.57,4.2-2.47,6.66-6.85,18.47-12.54,31,19.71,6.07,34.09,10.34,42.85,10.34h0c3.16,0,5.39-.55,6.82-1.68,.94-1.02,2.28-1.61,3.7-1.61,2.82,0,5.13,2.16,5.25,4.85,.43,6.02-.27,14.45-6.03,20.65-4.55,4.9-11.33,7.39-20.16,7.39-2.72,0-5.68-.24-8.8-.71-14.51-2.28-26.3-8.21-36.7-13.46-19.89,32.08-39.08,36.99-48.93,36.99h0Zm20.79-46.45c-8.54,0-17.01,3.46-23.24,9.51-3.24,3.2-8.27,9.9-7.9,14.2,.07,.86,.37,1.99,1.99,3.11,.73,.51,1.45,.74,2.29,.74,2.9,0,11.09-2.81,26.88-27.56h-.02Zm14.99-30.47c-4.57,3.99-8.91,6.35-12.83,7.67,2.26-.25,4.61-.38,7.05-.38,.94,0,1.9,.02,2.85,.06,1.04-2.42,2.02-4.88,2.93-7.36Zm33.12-79.62c-.35,0-8.88,.3-26.6,26.31-16.68,24.29-19,33.66-19.18,36.71,4.36-.85,10.08-5.72,15.97-13.66,.06-.09,.13-.17,.2-.25,1.56-1.79,3-3.82,4.26-5.62,.32-.45,.96-1.36,.99-1.39,8.05-10.55,15.69-22.38,20.17-29.95,3.43-6.18,4.01-8.75,4.06-9.02,.02-.08,.03-.16,.05-.23,.42-1.59,.31-2.52,.2-2.87-.04,0-.08,0-.13,0Z"/><path class="cls-3" d="M619.08,247.24c-5.92,0-9.74-.96-9.9-1-9.52-2.44-16.11-7.67-19.58-15.54-9.16-20.78,7.6-52.65,8.32-54,18.02-34.47,45.99-52.53,64.29-52.53,2.82,0,5.35,.46,7.53,1.36,13.03,5.11,11.71,22.29,11.52,24.18-.08,1.4-.84,10.54-7.53,20.01-6.27,8.87-19.12,19.77-44.89,22.02-2.2,3.9-4.8,9.09-6.42,14.23-1.04,3.13-4.02,13.33,.68,15.68,.05,.02,.09,.05,.14,.07,1.82,1,3.94,1.51,6.29,1.51,2.93,0,6.2-.76,9.72-2.26,10.18-4.7,19-14.54,19.09-14.64,.02-.03,.05-.06,.08-.08,8.21-8.75,16.64-20.66,20.24-25.74l1.04-1.47c1.38-2.02,3.5-3.23,5.7-3.23h4.81c1.92,0,3.72,1.23,4.48,3.06,.63,1.53,.44,3.23-.46,4.56-7.44,15.1-16.45,26.95-23.48,35.61-9.9,12.16-20.9,20.57-32.69,24.99-6.23,2.16-12.58,3.24-18.97,3.24Zm44.74-95.97c-2.62,0-9.55,3.9-20.32,17.57,2.31-.59,4.27-1.38,5.58-2.14,14.75-8.25,14.96-14.25,14.84-15.43-.03,0-.06,0-.09,0Z"/><path class="cls-3" d="M956.72,309.71c-45.47,0-87.41-18.05-105.32-25.76l-35.46-15.2c-26.97,25.64-59.79,40.29-90.45,40.29-4.72,0-9.4-.35-13.92-1.04-.94-.13-24.64-3.53-36.31-20.06-5.85-8.3-7.61-18.32-5.22-29.79,.18-.96,1.68-8.35,7.2-16.2,5.12-7.28,14.75-16.35,31.87-19.17,6.52-14.27,17.83-29.57,28.79-44.4,17.38-23.5,35.35-47.8,34.66-67.97,0-.05,0-.09,0-.14,0-3.33,2.76-6.15,6.03-6.15,.31,0,.62,.03,.92,.08,6.04,.49,20.12,2.57,25.91,11.3,1.88,2.84,3.66,7.64,1.41,14.4-4.21,12.94-15.45,28.75-28.46,47.05-10.41,14.64-22.07,31.04-30.58,47.14,13.94,2.05,27.92,5.71,41.63,10.92l9.83,3.51c8.24-10.86,15.88-23.98,22.72-39.03,29.78-64.7,11.59-92.01,2.39-100.75-9.32-9-23.53-10.88-33.81-10.88-6.51,0-11.15,.78-11.2,.79-.09,.01-.18,.03-.27,.04-35.88,3.67-59.19,36.2-59.42,36.53-17.06,23.88-15.54,43.25-14.09,50.47,.36,1.82-.08,3.67-1.23,5.06-1.13,1.38-2.83,2.18-4.64,2.18-.41,0-.83-.04-1.24-.12-.18-.04-.36-.08-.53-.14-10.71-3.73-17.89-10.29-21.35-19.49-8.1-21.56,7.68-49.76,8.35-50.95,25.74-44.49,67.9-51.13,90.75-51.13,9.47,0,15.85,1.12,16.88,1.32,2.27,.31,27.35,4.07,48.77,20.97,14.43,11.32,24.24,26.59,28.38,44.16,5.18,22,1.82,47.78-10.01,76.64-6.7,16.62-15.67,32.02-26.68,45.85,9.34,3.02,17.96,5.57,25.18,7.43,26.63,7.42,57.4,14.99,84.22,14.99s44.24-7.23,54.39-22.1c1-1.5,2.71-2.42,4.54-2.42,1.58,0,3.1,.66,4.29,1.85,.2,.2,.38,.42,.53,.66,12.24,18.98,10.55,31.56,6.98,38.76-5.7,11.5-20.41,18.24-43.73,20.05-4.15,.32-8.43,.48-12.7,.48Zm-253.95-57.35c-5.35,5.5-6.83,11.84-6.85,11.92,0,.03-.02,.08-.02,.1-1.6,6.46-.98,11.69,1.84,15.55,5.27,7.22,16.69,8.08,16.8,8.08,1.22,.09,2.45,.14,3.69,.14,21.15,0,45.54-12.11,66.13-32.63-.3-.13-2.3-.99-2.3-.99-1.1-.36-2.2-.72-3.31-1.09-11.45-3.78-23.27-7.68-40.06-8.99-4.17,12.21-5.18,22.53-3.1,31.47,.46,1.6,.16,3.32-.8,4.66-.99,1.37-2.58,2.19-4.27,2.19-.13,0-.27,0-.4-.02-4.53-.45-13.94-3.41-20.5-11.6-4.14-5.18-6.44-11.47-6.86-18.79Z"/><path class="cls-3" d="M884.75,247.24c-5.92,0-9.74-.96-9.9-1-9.52-2.44-16.11-7.67-19.58-15.54-9.16-20.78,7.6-52.65,8.32-54,18.02-34.47,45.99-52.53,64.29-52.53,2.82,0,5.35,.46,7.53,1.36,13.03,5.11,11.71,22.29,11.52,24.18-.08,1.4-.84,10.54-7.53,20.01-6.27,8.87-19.12,19.77-44.89,22.02-2.2,3.9-4.8,9.09-6.42,14.23-1.04,3.13-4.02,13.33,.68,15.68,.05,.02,.09,.05,.14,.07,1.82,1,3.94,1.51,6.29,1.51,2.93,0,6.2-.76,9.72-2.26,10.18-4.7,19-14.54,19.09-14.64,.02-.03,.05-.06,.08-.08,8.21-8.74,16.63-20.64,20.23-25.73l1.06-1.49c1.37-2.02,3.5-3.23,5.7-3.23h4.81c1.92,0,3.72,1.23,4.48,3.06,.63,1.53,.44,3.23-.46,4.56-7.44,15.1-16.45,26.95-23.48,35.61-9.9,12.16-20.9,20.57-32.69,24.99-6.23,2.16-12.58,3.24-18.97,3.24Zm44.74-95.97c-2.62,0-9.55,3.9-20.32,17.57,2.31-.59,4.28-1.38,5.58-2.14,14.75-8.25,14.96-14.25,14.84-15.43-.03,0-.06,0-.09,0Z"/><path class="cls-3" d="M947.5,255.17c-.75,0-1.52-.03-2.28-.08h-.09c-1.89,0-11.64-.34-18.74-7.07-9.48-8.44-6.42-20.87-6.28-21.39,2.93-11.31,11.31-19.56,24.92-24.56-.42-2-.91-3.79-1.42-5.64l-.28-1.03c-.91-2.7-10.78-34.13,14.05-57.07,4.91-4.37,10.98-6.75,17.15-6.75s11.57,2.35,15.53,6.61c2.28,2.3,4.05,5.21,5.12,8.42,.86,2.58-.31,5.65-2.78,7.3-.03,.02-.07,.04-.1,.07-.35,.22-.76,.46-1.21,.73-5.61,3.35-16.06,9.6-12.92,26.75,.05,.24,1.46,7.08,2.41,15.6,7.14,.58,13.32,1.88,18.83,3.94,.29,.11,.56,.25,.81,.42,2.75,1.84,3.52,5.54,1.71,8.25-.04,.06-.08,.12-.13,.18l-1.81,2.41c-.11,.15-.24,.29-.37,.43-2.01,2.01-4.58,3.17-7.05,3.17-.71,0-1.4-.09-2.07-.28-2.51-.38-5.39-.78-8.51-.87,.04,4.22-.32,8.93-1.78,14.52-3.14,12.55-15.67,25.94-32.7,25.94h0Zm-1.1-32.36c-6.43,2.89-8.69,5.42-9.4,7.16-.2,.49-.39,1.19-.23,2.19,4.98-.06,6.76-1.85,7.75-3.41,.9-1.42,1.52-3.38,1.88-5.94Z"/><path class="cls-3" d="M1001.3,244.56c-.26,0-.51,0-.76-.01-7.52-.26-13.54-3.27-17.39-8.7-4.91-6.93-5.85-17.42-2.52-28.08,4.84-15.13,13.05-26.85,13.77-27.86,9.5-14.14,24.12-37.63,25.55-44.56,.03-.16,.07-.31,.12-.46,.8-2.4,2.98-4.02,5.42-4.02,.41,0,.82,.05,1.22,.14,.71,.09,1.76,.27,3,.65-1-3.21-1.14-7.79,1.67-13.75,1.5-3.25,6.01-8.81,13.32-8.81,.88,0,1.79,.08,2.69,.25,4.78,.73,8.58,3.9,10.16,8.49,1.8,5.21,.49,11.19-3.33,15.28-3.66,4.26-8.5,6.72-13.33,6.78,.52,.74,1.01,1.53,1.48,2.39,1.05,1.75,7.06,13.18-3.33,30.81-.02,.03-.04,.06-.06,.1-.08,.13-8.3,13.2-18.19,26.98-8.14,11.72-6.8,15.35-6.62,15.73,.15,.32,.5,.46,.62,.5,5.59-.27,20.26-16.23,34.33-37.33,1.37-2.06,3.52-3.29,5.74-3.29h4.81c1.69,0,3.26,.91,4.2,2.43,.94,1.52,1.05,3.34,.29,4.86-17.96,35.63-44.39,61.49-62.85,61.49h0Z"/><path class="cls-3" d="M1046.25,307.75c-5.44,0-10.86-1.37-16.09-4.07-5.95-3.08-10.29-8.97-11.62-15.74-1.24-6.32-.43-16.51,10.41-29.22,.57-.67,11.93-13.82,31.96-18.75-.12,0-.37,0-.37,0-1.88,0-3.79-.21-5.66-.63-7.16-1.66-12.16-5.56-14.89-11.6-8.21-18.13,8.52-49.72,9.23-51.06,10.63-20.33,23.51-32.67,32.44-39.44,11.04-8.37,22.54-13.17,31.55-13.17,2.93,0,5.52,.51,7.71,1.53,4.68,2.06,8.1,5.46,9.99,9.78,.42-.43,.81-.81,1.15-1.15,2.31-2.31,5.13-3.58,7.94-3.58h22.87c2.21,0,4.15,1.49,4.82,3.71,.61,2.01-.02,4.11-1.56,5.4-8.07,8.14-28.81,33.81-39.29,58.73-.04,.09-2.69,6.29-4.43,11.21-.01,.04-.03,.08-.04,.12-.4,1.02-.92,2.44-1.57,4.2-2.47,6.66-6.85,18.47-12.54,31,19.71,6.07,34.09,10.34,42.85,10.34h0c3.16,0,5.39-.55,6.82-1.68,.94-1.02,2.28-1.61,3.7-1.61,2.82,0,5.13,2.16,5.25,4.85,.43,6.02-.27,14.45-6.03,20.65-4.55,4.9-11.33,7.39-20.16,7.39-2.72,0-5.68-.24-8.8-.71-14.51-2.28-26.3-8.21-36.7-13.46-19.89,32.08-39.08,36.99-48.93,36.99h0Zm20.79-46.45c-8.54,0-17.01,3.46-23.24,9.51-3.24,3.2-8.27,9.9-7.9,14.2,.07,.86,.37,1.99,1.99,3.11,.73,.51,1.45,.74,2.29,.74,2.9,0,11.09-2.81,26.88-27.56h-.02Zm14.99-30.47c-4.57,3.99-8.91,6.35-12.83,7.67,2.26-.25,4.61-.38,7.05-.38,.94,0,1.9,.02,2.85,.06,1.04-2.42,2.02-4.88,2.93-7.36Zm33.12-79.62c-.35,0-8.88,.3-26.6,26.31-16.68,24.29-19,33.66-19.18,36.71,4.36-.85,10.08-5.72,15.97-13.66,.06-.09,.13-.17,.2-.25,1.56-1.78,2.99-3.81,4.25-5.6,.32-.46,.97-1.38,1-1.41,8.05-10.55,15.69-22.38,20.17-29.95,3.43-6.18,4.01-8.75,4.06-9.03,.02-.08,.03-.16,.05-.23,.42-1.59,.31-2.52,.2-2.87-.04,0-.08,0-.13,0Z"/><path class="cls-3" d="M1201.08,244.56c-.26,0-.51,0-.76-.01-7.37-.26-13.29-3.24-17.09-8.61-4.92-6.95-5.86-17.48-2.52-28.18,4.52-15.05,12.7-27.05,13.44-28.12,2.41-3.7,4.23-6.36,6-8.93,1.1-1.6,2.17-3.16,3.32-4.89,.54-.82,1-1.56,1.4-2.22-5.55,4.76-14.89,15.65-26.82,35.95-8.44,14.06-14.8,27.65-17.85,34.5-.04,.08-.07,.16-.12,.24-2.97,5.64-7.48,8.51-13.4,8.51-.48,0-.96-.02-1.43-.05-3.5-.04-6.05-1.42-8.08-2.78-.08-.05-.15-.11-.23-.16-7.27-5.61-14.07-17.38-5.22-41.55,2.67-7.72,5.92-14.15,12.4-24.51,.02-.03,.04-.06,.05-.09,9.4-14.22,23.86-37.78,25.54-45.01,.3-2.63,2.59-4.62,5.47-4.62,.26,0,.53,.03,.78,.08,2.96,.59,10.29,2.92,14.55,11.8,.41,.83,3.31,7.15,1.77,16.14,1.17-1.3,2.41-2.63,3.71-3.97,11.69-12,22.23-18.09,31.32-18.09,4.81,0,9.12,1.68,12.82,4.99,10.72,9.62,9.16,25.5-4.27,43.58-.08,.11-9.29,12.62-16.62,24.93-5.13,8.38-5.26,12.12-4.9,12.78h0s.28,.1,.75,.16c0,0,.04,0,.08,0,3.27,0,14.04-7.87,33.71-37.36,1.4-2.09,3.59-3.29,6.04-3.29h4.51c1.69,0,3.26,.91,4.2,2.43,.94,1.52,1.05,3.34,.29,4.86-17.67,35.63-44.11,61.49-62.85,61.49Z"/><path class="cls-3" d="M1251.38,255.17c-.75,0-1.52-.03-2.28-.08h-.09c-1.89,0-11.64-.34-18.74-7.07-9.48-8.44-6.42-20.87-6.28-21.39,2.93-11.31,11.31-19.56,24.92-24.56-.42-2-.91-3.79-1.42-5.64l-.28-1.03c-.91-2.7-10.78-34.13,14.05-57.07,4.91-4.37,10.98-6.75,17.15-6.75s11.57,2.35,15.53,6.61c2.28,2.3,4.05,5.21,5.12,8.42,.86,2.58-.31,5.65-2.78,7.3-.03,.02-.07,.04-.1,.07-.35,.22-.76,.46-1.21,.73-5.61,3.35-16.06,9.6-12.92,26.75,.05,.24,1.46,7.08,2.41,15.6,7.14,.58,13.32,1.88,18.83,3.94,.29,.11,.56,.25,.81,.42,1.29,.86,2.2,2.17,2.55,3.67,.36,1.58,.06,3.25-.83,4.59-.04,.06-.08,.12-.13,.18l-1.81,2.41c-.11,.15-.24,.29-.37,.43-2.01,2.01-4.58,3.17-7.05,3.17-.71,0-1.4-.09-2.07-.28-2.51-.38-5.39-.78-8.51-.87,.04,4.22-.32,8.93-1.78,14.52-3.14,12.55-15.67,25.94-32.7,25.94h0Zm-1.1-32.36c-6.43,2.89-8.69,5.42-9.4,7.16-.2,.49-.39,1.19-.23,2.19,4.98-.06,6.76-1.85,7.75-3.41,.9-1.42,1.52-3.38,1.88-5.94Z"/></g><g><path class="cls-4" d="M82.15,278.1c-.48,0-.96-.03-1.45-.1-3.84-.91-9.42-2.69-13.95-7.52-14.97-15.32-12.1-45.94,7.83-84.06,40.8-78.36,43.98-96.34,41.34-104.1-.81-2.39-2.34-4.07-4.66-5.15-1.59-.74-3.65-1.13-5.94-1.13-5.39,0-33.56,2.83-59,58.68-16.58,35.93-6.97,52.42,1.86,59.57-4.02-.12-9.26-.62-14.28-2.81-12.74-4.98-19.36-17.93-17.76-34.68,4.12-39.65,42.2-70.53,42.58-70.84,6.49-5.47,14.59-10.05,22.25-12.6,5.68-2.07,11.92-3.19,17.62-3.19s10.24,1.05,13.88,3.05l.08,.04,.08,.04c1.21,.54,29.64,13.54,16.69,46.48-2.59,6.51-6.95,15.68-11.99,26.31-16.27,34.27-40.86,86.06-36.87,115.2l3.98-.27c0,.16-.03,.56-.29,.81l.32-.32,.15-.43c1.24-3.56,1.95-6,2.52-7.96,1.5-5.14,2.18-7.49,9.95-20.88,10.94-20.09,35.96-49.96,36.21-50.26,26.5-31.05,59.38-76.49,39.58-112.82,2.31-.23,4.49-.34,6.65-.34,8.19,0,19.1,1.7,24.54,9.78,5.59,8.3,4.63,21.85-2.85,40.27-13.02,31.47-35.78,55.1-54.07,74.09-1.75,1.82-3.46,3.59-5.1,5.31-.12,.12-16.78,16.53-32.62,36.86-3.66,4.93-15.91,22.2-21.09,38.85-.97,2.76-3,4.14-6.2,4.14Z"/><path class="cls-4" d="M182.93,238.56c-.17,0-.35,0-.52,0-5.69-.2-9.97-2.28-12.73-6.17-3.78-5.33-4.42-14.07-1.69-22.82,4.66-14.56,12.87-26.09,12.96-26.21,1.01-1.51,23.8-35.49,26.42-46.42h.03c1.71,.17,7.58,1.28,11.38,8.29l.04,.08,.05,.08c.23,.36,5.72,9.23-3.37,24.65-.05,.08-8.18,13-17.95,26.63-7.01,10.1-9.35,17.22-7.17,21.81,1.36,2.86,4.18,3.81,5.63,3.92h.3c5.31,0,12.73-5.74,22.69-17.57,7.89-9.37,14.8-19.54,16.73-22.43,.31-.47,.65-.61,.74-.61h3.22c-18.95,36.89-43.29,56.79-56.78,56.79h0Zm39.43-104.68c-1.44,0-2.7-.39-3.56-1.09-.19-.16-4.38-3.81-.36-12.34,.11-.22,2.59-5.36,7.89-5.36,.54,0,1.1,.05,1.67,.16,3.63,.54,5,3.07,5.51,4.53,1.07,3.1,.23,6.83-2.09,9.27l-.07,.08c-2.56,3.02-5.84,4.75-9,4.75Z"/><path class="cls-4" d="M290.34,238.56c-.18,0-.35,0-.52,0-5.54-.2-9.72-2.24-12.43-6.08-3.79-5.35-4.43-14.13-1.68-22.92,4.37-14.56,12.58-26.41,12.67-26.53,2.42-3.72,4.23-6.37,5.99-8.92,1.11-1.62,2.19-3.2,3.36-4.95,4.28-6.49,5.62-10.43,4.35-12.79-.6-1.11-1.75-1.77-3.08-1.77-.2,0-.35,.01-.45,.03-11.82,1.02-32.39,35.07-36.4,41.89-8.55,14.25-15.02,28.04-18.13,35.04-2.47,4.65-5.6,5.24-8.06,5.24-.38,0-.75-.02-1.12-.04h-.15c-1.85,0-3.28-.7-4.85-1.74-8.1-6.31-9.21-18.3-3.2-34.69,2.54-7.34,5.64-13.46,11.85-23.4,.95-1.43,23.54-35.68,26.32-46.77,2.67,.7,6.88,2.69,9.59,8.36,.24,.48,5.33,10.99-3.77,24.5-.09,.13-8.54,12.83-15.11,24.18-3.79,7-7.76,15.16-10.64,21.88l3.56,1.8c7.22-12.34,16.85-28.26,27.25-41.92,.11-.16,5.9-8.51,13.92-16.73,10.36-10.62,19.69-16.23,26.98-16.23,3.33,0,6.22,1.13,8.82,3.46,11.54,10.35,.29,28.29-5.09,35.53-.1,.13-9.48,12.87-16.96,25.44-5.21,8.5-6.95,14.71-5.15,18.45,.66,1.38,2.14,3.1,5.42,3.51,.28,.03,.55,.05,.82,.05,9.92,0,26.52-21.77,38.7-40.04,.36-.54,.73-.61,1.04-.61h2.93c-10.6,20.97-22,34.18-29.76,41.62-10.06,9.64-19.91,15.17-27.02,15.17Z"/><path class="cls-4" d="M343.37,243.67c-4.21,0-8.81-1.05-12.01-2.74-8.11-5.01-7.14-15.41-7.13-15.51,.53-9.53,4.81-20.48,13.87-35.58,11.55-19.25,32.18-47.4,32.39-47.68,7.64-10.69,14.09-21.77,19.39-31.19l1.22-2.16-2.37-.73c-2.86-.88-4.71-2.29-5.51-4.2-.7-1.67-.53-3.52-.19-4.96,2.32,1.1,5.97,1.63,11.13,1.63h1.26l.55-1.13c7.67-15.9,12.4-29.28,13.12-34.28l.02-.14v-.14c0-.56,.41-.71,.65-.71,.12,0,.24,.03,.37,.09,25.21,11.35,25.7,20.98,22.49,29.71l-1.14,3.11,3.28-.43c10.79-1.42,22.98-2.94,31.07-2.94,2.73,0,4.9,.17,6.46,.51,6.1,1.29,5.59,6.98,5.09,9.37-.44,2.2-1.37,4.36-2.13,5.88-5.25-3.52-16.75-4.03-26.71-4.03-6.18,0-13.37,.25-21.97,.78l-1.05,.06-.54,.9c-.42,.69-.91,1.4-1.43,2.14-.52,.74-1.06,1.51-1.53,2.3-1.29,1.8-28.02,38.92-41.11,55.21-2.15,2.74-4.25,5.38-6.29,7.95-10.6,13.35-19.75,24.87-24.65,35.17-2.48,5.35-2.76,9.57-.84,12.57,2.25,3.52,6.73,4.26,10.09,4.26,1.16,0,2.04-.09,2.35-.13,12.58-.56,41.42-38.28,45.16-44.26,.2-.31,.79-.57,1.01-.57h2.93c-18.61,36.67-46.57,59.09-63.7,61.61-1.12,.19-2.3,.28-3.55,.28Z"/><path class="cls-4" d="M457.03,238.55c-2.43,0-4.39-.83-5.99-2.55-5.64-6.06-4.77-20.73-4.65-22.38l.53-7.46-4.19,6.2c-6.65,9.85-17.19,21.6-29.66,21.6h0c-1.45,0-2.92-.16-4.36-.47-5.17-1.21-8.64-3.88-10.57-8.14-7.02-15.45,8.75-45.53,8.91-45.83,10.13-19.38,22.39-31.08,30.88-37.48,9.94-7.49,20.44-11.95,28.1-11.95,2.06,0,3.81,.33,5.2,.97,6.8,2.99,7.92,8.71,8.17,12.75l.3,4.75,3.19-3.54c2.68-2.98,4.74-5.04,6.25-6.54l.08-.08,.07-.09c.77-.96,2.26-1.66,3.55-1.66h20.76c-7.32,7.48-31.16,33.04-42.16,59.2-5.38,12.5-6.75,20.47-4.18,24.37,1.05,1.6,2.61,2.17,3.62,2.17h.15c11.83,0,33.17-30.62,39.42-40,.36-.54,.73-.61,1.04-.61h2.92c-10.87,21.15-22.42,34.37-30.28,41.79-10.09,9.52-19.97,14.99-27.1,14.99Zm10.95-93.34c-7.53,0-19.03,10.54-31.55,28.93-15.39,22.42-22.05,37.01-19.78,43.37,.58,1.62,1.68,2.46,2.52,2.71l.15,.04,.16,.02c.45,.06,.91,.08,1.37,.08,6.42,0,13.65-5.29,22.12-16.19,.63-.84,1.24-1.69,1.85-2.54,1.16-1.61,2.36-3.27,3.5-4.61l.07-.09c8.23-10.78,16.03-22.87,20.59-30.58,2.51-4.53,3.61-7.61,4.27-9.46,.15-.42,.27-.77,.38-1.05l.04-.12,.03-.12c.89-3.37,.57-6.28-.9-8.18-.78-1.01-2.25-2.22-4.83-2.22Z"/><path class="cls-4" d="M502.88,301.75c-4.48,0-8.97-1.14-13.34-3.4-3.34-1.73-7.33-5.68-8.48-11.56-1.41-7.2,1.73-15.56,9.08-24.17,.16-.19,16.05-18.49,42.74-18.49,1.72,0,3.48,.08,5.21,.23l1.41,.12,.58-1.29c4.21-9.32,7.58-19.33,9.76-28.97l-3.62-1.54c-5.24,7.95-15.98,21.3-29.05,21.3h0c-1.44,0-2.9-.16-4.34-.49-5.27-1.23-8.79-3.91-10.74-8.22-7-15.45,8.89-45.45,9.06-45.75,10.14-19.4,22.33-31.09,30.77-37.49,9.88-7.48,20.32-11.95,27.93-11.95,2.05,0,3.8,.33,5.19,.97,6.76,2.97,8.17,8.51,8.17,12.63v5.21l3.49-3.87c2.68-2.98,4.74-5.04,6.25-6.54,1.17-1.17,2.49-1.82,3.7-1.82h20.78c-8.99,9.46-29.1,34.84-39.47,59.5-.11,.25-2.75,6.42-4.55,11.54-.38,.98-.92,2.44-1.59,4.23-2.71,7.31-7.75,20.91-14.28,34.7l-.99,2.09,2.79,.86c22.17,6.84,38.2,11.78,48.41,11.78h0c4.16,0,7.4-.81,9.86-2.47,.13,4.64-.67,10.45-4.52,14.59-3.37,3.63-8.67,5.47-15.76,5.47-2.42,0-5.08-.22-7.9-.64-13.61-2.13-24.5-7.63-35.03-12.95-1.07-.54-2.13-1.08-3.19-1.61l-1.67-.83-.95,1.61c-6.59,11.2-24.22,37.24-45.69,37.24h0Zm20.79-46.45c-10.08,0-20.08,4.08-27.42,11.2-.43,.43-10.44,10.35-9.71,19.01,.26,3.09,1.79,5.63,4.54,7.54,1.72,1.2,3.64,1.81,5.71,1.81,9.07,0,20.96-12.05,35.35-35.82l1.45-2.39-2.73-.6c-2.28-.5-4.7-.75-7.2-.75Zm48.11-110.09c-7.53,0-19.03,10.54-31.55,28.93-15.39,22.42-22.05,37.01-19.78,43.37,.58,1.62,1.68,2.46,2.52,2.71l.16,.04,.16,.02c.46,.06,.93,.08,1.4,.08,8.31,0,16.58-8.77,22.06-16.16,1.75-2.01,3.26-4.16,4.6-6.06,.31-.44,.6-.86,.89-1.26,8.19-10.73,15.99-22.82,20.55-30.53,3.58-6.44,4.5-9.66,4.74-10.79,.87-3.35,.55-6.23-.91-8.13-.78-1.01-2.25-2.22-4.83-2.22Z"/><path class="cls-4" d="M619.08,241.24c-5.12,0-8.38-.81-8.41-.82-7.65-1.96-12.89-6.05-15.58-12.15-8-18.14,7.96-48.45,8.12-48.75,18.8-35.96,46.16-49.35,59-49.35,2.04,0,3.81,.31,5.26,.91,9.3,3.62,7.83,17.95,7.81,18.09v.15c-.06,1.36-1.86,33.44-48.99,36.58l-1.05,.07-.54,.91c-2.52,4.28-5.95,10.75-8.01,17.26-3.86,11.59-2.55,19.72,3.72,22.85,2.65,1.46,5.74,2.22,9.11,2.22,3.76,0,7.84-.93,12.13-2.77,11.43-5.25,20.78-15.71,21.17-16.16,8.46-9.01,17.06-21.15,20.73-26.34l1.07-1.5c.35-.52,.69-.67,.78-.67h2.94c-7.07,14.07-15.57,25.23-22.24,33.45-9.22,11.32-19.36,19.11-30.14,23.16-5.45,1.89-11.14,2.86-16.87,2.86Zm44.74-95.97c-7.26,0-18.13,9.71-30.61,27.34l-2.1,2.97,3.64,.18c.48,.02,.96,.04,1.44,.04,6.36,0,12.57-1.97,15.92-3.92,8.85-4.94,14.5-10.15,16.78-15.46,1.87-4.35,.73-7.21,.6-7.53-.97-2.3-3.03-3.63-5.65-3.63Z"/><path class="cls-4" d="M956.72,303.71c-44.23,0-85.38-17.71-102.95-25.27l-39.14-16.78-.96,.94c-26.21,25.7-58.35,40.44-88.18,40.44-4.42,0-8.79-.33-13.02-.97-.25-.04-22.18-3.2-32.32-17.61-4.86-6.89-6.28-15.35-4.23-25.14,.2-1.17,5.04-26.95,36.21-30.92l1.14-.15,.45-1.05c6.05-14.2,17.72-29.99,29.01-45.25,17.99-24.33,36.59-49.49,35.84-71.74h0s.04-.03,.08-.06h.17c8.08,.64,18.01,3.24,21.61,8.67,1.69,2.55,1.92,5.55,.71,9.18-3.94,12.11-15.46,28.32-27.66,45.47-11.62,16.34-24.79,34.86-33.62,52.97l-1.24,2.54,2.81,.32c15.32,1.77,30.75,5.58,45.85,11.32l14.03,5.01,.89-1.13c9.21-11.67,17.7-25.98,25.22-42.53,22.1-48.01,22.49-87.23,1.06-107.58-10.73-10.35-26.56-12.53-37.94-12.53-6.7,0-11.48,.75-12.15,.87-38.64,3.99-62.65,37.61-63.65,39.04-18.39,25.75-16.66,47.11-15.07,55.1l.21,.13c-8.95-3.12-14.9-8.48-17.71-15.94-7.12-18.96,7.8-45.61,7.96-45.87,24.21-41.85,63.98-48.1,85.53-48.1,9.52,0,15.78,1.22,15.84,1.23l.13,.02c.25,.03,25.3,3.46,45.96,19.75,13.55,10.63,22.38,24.36,26.26,40.82,4.89,20.75,1.62,45.31-9.72,72.99-7.22,17.9-17.13,34.32-29.46,48.81l-1.92,2.26,2.81,.94c11.6,3.87,22.36,7.11,31.12,9.37,26.92,7.5,58.18,15.18,85.72,15.18s47.79-8.16,59.04-24.27c4.83,7.62,11.71,21.5,6.33,32.35-4.7,9.47-17.76,15.1-38.82,16.73-4,.3-8.11,.46-12.24,.46Zm-250.61-61.3c-13,6.98-15.93,20.05-16.05,20.6-2.03,8.22-1.07,15.14,2.86,20.5,6.97,9.5,20.65,10.46,21.23,10.49,1.3,.1,2.69,.15,4.08,.15,24.17,0,52.04-14.46,74.54-38.69l1.98-2.14-2.71-1.08c-2.27-.91-4.34-1.81-6.17-2.6l-1.69-.73s-2.39-.78-3.55-1.17c-11.9-3.93-25.4-8.38-44.57-9.49l-1.48-.08-.51,1.38c-5.31,14.28-6.78,26.41-4.47,37.06-3.74-.69-10.49-3.23-15.28-9.21-4.65-5.82-6.43-13.55-5.27-22.99l.47-3.83-3.4,1.82Z"/><path class="cls-4" d="M884.75,241.24c-5.12,0-8.38-.81-8.41-.82-7.65-1.96-12.89-6.05-15.58-12.15-8-18.14,7.96-48.45,8.12-48.75,18.79-35.96,46.16-49.35,59-49.35,2.04,0,3.81,.31,5.26,.91,9.3,3.62,7.83,17.95,7.81,18.09v.15c-.06,1.36-1.86,33.44-48.99,36.58l-1.05,.07-.54,.91c-2.52,4.28-5.95,10.75-8.01,17.26-3.86,11.59-2.55,19.72,3.72,22.85,2.65,1.46,5.74,2.22,9.11,2.22,3.76,0,7.84-.93,12.13-2.77,11.43-5.25,20.78-15.71,21.17-16.16,8.45-9,17.05-21.14,20.72-26.33l1.08-1.52c.35-.52,.69-.67,.78-.67h2.94c-7.07,14.07-15.57,25.23-22.24,33.45-9.22,11.32-19.36,19.11-30.14,23.16-5.45,1.89-11.14,2.86-16.87,2.86Zm44.74-95.97c-7.26,0-18.13,9.71-30.61,27.34l-2.1,2.97,3.64,.18c.48,.02,.96,.04,1.44,.04,6.36,0,12.57-1.97,15.92-3.92,8.85-4.94,14.5-10.15,16.78-15.46,1.87-4.35,.73-7.21,.6-7.53-.97-2.3-3.03-3.63-5.65-3.63Z"/><path class="cls-4" d="M947.5,249.17c-.66,0-1.34-.03-2.01-.08h-.36c-.91,0-9.09-.16-14.66-5.47-6.88-6.09-4.58-15.41-4.56-15.51,2.64-10.2,10.57-17.21,24.23-21.45l1.63-.5-.24-1.69c-.55-3.85-1.32-6.66-2.14-9.64l-.33-1.2-.02-.07c-.1-.3-10.08-30.04,12.41-50.82,3.67-3.27,8.45-5.15,13.08-5.15s8.36,1.68,11.17,4.74c1.66,1.66,2.97,3.81,3.75,6.1-.04,.13-.18,.37-.38,.51-.27,.17-.65,.39-1.06,.64-5.88,3.51-19.63,11.73-15.75,32.98,.03,.13,1.8,8.78,2.68,18.47l.16,1.73,1.74,.08c7.78,.37,14.33,1.56,20.01,3.62l-1.56,2.08c-.85,.81-1.88,1.32-2.72,1.32-.2,0-.39-.03-.56-.09l-.16-.05-.17-.03c-3.16-.49-6.89-1.01-11.09-1.01-.96,0-1.93,.03-2.87,.08l-2,.12,.12,2c.33,5.53,.2,10.51-1.44,16.83-2.6,10.41-12.91,21.45-26.89,21.45h0Zm2.59-34.27c-10.57,3.72-16.67,7.91-18.66,12.82-1.16,2.88-.93,5.98,.68,9.21l.5,1,1.11,.1c.97,.09,1.9,.13,2.79,.13h0c6.15,0,10.42-2.03,13.07-6.2,2.16-3.41,3.17-8.23,3.17-15.18v-2.82l-2.66,.94Z"/><path class="cls-4" d="M1001.3,238.56c-.17,0-.35,0-.52,0-5.69-.2-9.97-2.28-12.73-6.17-3.78-5.33-4.42-14.07-1.69-22.82,4.65-14.53,12.87-26.09,12.95-26.21,1.01-1.51,23.8-35.49,26.42-46.42h.03c1.71,.17,7.58,1.28,11.38,8.29l.04,.08,.05,.08c.23,.36,5.72,9.23-3.37,24.65-.05,.08-8.18,13-17.96,26.63-7.01,10.1-9.35,17.22-7.17,21.81,1.36,2.86,4.18,3.81,5.63,3.92h.3c5.31,0,12.73-5.74,22.69-17.57,7.89-9.37,14.8-19.54,16.73-22.43,.31-.47,.65-.61,.74-.61h3.22c-18.95,36.89-43.29,56.79-56.78,56.79h0Zm39.43-104.68c-1.44,0-2.7-.39-3.56-1.09-.19-.16-4.38-3.81-.36-12.34,.11-.22,2.59-5.36,7.89-5.36,.54,0,1.1,.05,1.67,.16,3.63,.54,5.01,3.07,5.51,4.53,1.07,3.1,.23,6.83-2.09,9.27l-.07,.08c-2.56,3.02-5.84,4.75-8.99,4.75Z"/><path class="cls-4" d="M1046.25,301.75c-4.48,0-8.97-1.14-13.34-3.4-3.34-1.73-7.33-5.68-8.48-11.56-1.41-7.2,1.73-15.56,9.08-24.17,.16-.19,16.05-18.49,42.74-18.49,1.72,0,3.48,.08,5.21,.23l1.41,.12,.58-1.29c4.21-9.32,7.58-19.33,9.76-28.97l-3.62-1.54c-5.24,7.95-15.98,21.3-29.05,21.3h0c-1.44,0-2.9-.16-4.34-.49-5.27-1.23-8.79-3.91-10.74-8.22-7-15.45,8.89-45.45,9.06-45.75,10.14-19.4,22.33-31.09,30.77-37.49,9.88-7.48,20.32-11.95,27.93-11.95,2.05,0,3.8,.33,5.19,.97,6.76,2.97,8.17,8.51,8.17,12.63v5.21l3.49-3.87c2.68-2.98,4.74-5.04,6.25-6.54,1.17-1.17,2.49-1.82,3.7-1.82h20.78c-8.99,9.46-29.1,34.84-39.47,59.5-.11,.25-2.75,6.42-4.55,11.54-.38,.98-.92,2.44-1.59,4.23-2.71,7.31-7.75,20.91-14.28,34.7l-.99,2.09,2.79,.86c22.17,6.84,38.2,11.78,48.41,11.78h0c4.16,0,7.4-.81,9.86-2.47,.13,4.64-.67,10.45-4.52,14.59-3.37,3.63-8.67,5.47-15.76,5.47-2.42,0-5.08-.22-7.9-.64-13.61-2.13-24.5-7.63-35.03-12.95-1.07-.54-2.13-1.08-3.19-1.61l-1.67-.83-.95,1.61c-6.59,11.2-24.22,37.24-45.69,37.24h0Zm20.79-46.45c-10.08,0-20.08,4.08-27.42,11.2-.43,.43-10.44,10.35-9.71,19.01,.26,3.09,1.79,5.63,4.54,7.54,1.72,1.2,3.64,1.81,5.71,1.81,9.07,0,20.96-12.05,35.35-35.82l1.45-2.39-2.73-.6c-2.28-.5-4.7-.75-7.2-.75Zm48.11-110.09c-7.53,0-19.03,10.54-31.55,28.93-15.39,22.42-22.05,37.01-19.78,43.37,.58,1.62,1.68,2.46,2.52,2.71l.16,.04,.16,.02c.46,.06,.93,.08,1.4,.08,8.31,0,16.58-8.77,22.06-16.16,1.75-2,3.25-4.15,4.58-6.04,.31-.44,.61-.87,.9-1.27,8.19-10.73,15.99-22.82,20.55-30.53,3.58-6.44,4.5-9.66,4.74-10.79,.87-3.35,.55-6.23-.91-8.13-.78-1.01-2.25-2.22-4.83-2.22Z"/><path class="cls-4" d="M1201.08,238.56c-.18,0-.35,0-.52,0-5.54-.2-9.72-2.24-12.43-6.08-3.79-5.35-4.43-14.13-1.69-22.92,4.37-14.56,12.58-26.41,12.67-26.53,2.42-3.72,4.23-6.36,5.99-8.92,1.11-1.62,2.19-3.2,3.37-4.96,4.28-6.49,5.62-10.43,4.35-12.79-.6-1.11-1.75-1.77-3.08-1.77-.2,0-.35,.01-.45,.03-11.82,1.02-32.39,35.07-36.4,41.89-8.55,14.25-15.02,28.04-18.13,35.04-2.47,4.65-5.6,5.24-8.06,5.24-.38,0-.75-.02-1.12-.04h-.15c-1.85,0-3.28-.7-4.85-1.74-8.1-6.31-9.2-18.3-3.2-34.69,2.54-7.34,5.64-13.46,11.85-23.4,.95-1.43,23.54-35.68,26.32-46.77,2.67,.7,6.88,2.69,9.59,8.36,.24,.48,5.33,10.99-3.77,24.5-.09,.13-8.54,12.83-15.12,24.18-3.79,7-7.76,15.16-10.64,21.88l3.56,1.8c7.22-12.34,16.85-28.26,27.25-41.92,.11-.16,5.9-8.51,13.92-16.73,10.36-10.62,19.69-16.23,26.98-16.23,3.33,0,6.22,1.13,8.82,3.46,11.54,10.35,.29,28.29-5.09,35.53-.1,.13-9.48,12.87-16.96,25.44-5.21,8.5-6.95,14.71-5.15,18.45,.66,1.38,2.14,3.11,5.42,3.51,.28,.03,.55,.05,.82,.05,9.93,0,26.52-21.77,38.7-40.04,.36-.54,.73-.61,1.04-.61h2.93c-10.6,20.97-22,34.18-29.76,41.62-10.06,9.64-19.91,15.17-27.02,15.17Z"/><path class="cls-4" d="M1251.38,249.17c-.66,0-1.34-.03-2.01-.08h-.36c-.91,0-9.09-.16-14.66-5.47-6.88-6.09-4.58-15.41-4.56-15.51,2.64-10.2,10.57-17.21,24.23-21.45l1.63-.5-.24-1.69c-.55-3.85-1.32-6.66-2.14-9.64l-.33-1.2-.02-.07c-.1-.3-10.08-30.04,12.41-50.82,3.67-3.27,8.45-5.15,13.08-5.15s8.36,1.68,11.17,4.74c1.66,1.66,2.97,3.81,3.75,6.1-.04,.13-.18,.37-.38,.51-.27,.17-.65,.39-1.06,.64-5.88,3.51-19.63,11.73-15.75,32.98,.03,.13,1.8,8.78,2.68,18.47l.16,1.73,1.74,.08c7.78,.37,14.33,1.56,20.01,3.62l-1.56,2.08c-.85,.81-1.88,1.32-2.72,1.32-.2,0-.39-.03-.56-.09l-.16-.05-.17-.03c-3.16-.49-6.89-1.01-11.09-1.01-.96,0-1.93,.03-2.87,.08l-2,.12,.12,2c.33,5.53,.2,10.51-1.44,16.83-2.6,10.41-12.91,21.45-26.89,21.45h0Zm2.59-34.27c-10.57,3.72-16.67,7.91-18.66,12.82-1.16,2.88-.93,5.98,.68,9.21l.5,1,1.11,.1c.97,.09,1.9,.13,2.79,.13h0c6.15,0,10.42-2.03,13.07-6.2,2.16-3.41,3.17-8.23,3.17-15.18v-2.82l-2.66,.94Z"/></g><g><path class="cls-2" d="M82.15,278.1c-.48,0-.96-.03-1.45-.1-3.84-.91-9.42-2.69-13.95-7.52-14.97-15.32-12.1-45.94,7.83-84.06,40.8-78.36,43.98-96.34,41.34-104.1-.81-2.39-2.34-4.07-4.66-5.15-1.59-.74-3.65-1.13-5.94-1.13-5.39,0-33.56,2.83-59,58.68-16.58,35.93-6.97,52.42,1.86,59.57-4.02-.12-9.26-.62-14.28-2.81-12.74-4.98-19.36-17.93-17.76-34.68,4.12-39.65,42.2-70.53,42.58-70.84,6.49-5.47,14.59-10.05,22.25-12.6,5.68-2.07,11.92-3.19,17.62-3.19s10.24,1.05,13.88,3.05l.08,.04,.08,.04c1.21,.54,29.64,13.54,16.69,46.48-2.59,6.51-6.95,15.68-11.99,26.31-16.27,34.27-40.86,86.06-36.87,115.2l3.98-.27c0,.16-.03,.56-.29,.81l.32-.32,.15-.43c1.24-3.56,1.95-6,2.52-7.96,1.5-5.14,2.18-7.49,9.95-20.88,10.94-20.09,35.96-49.96,36.21-50.26,26.5-31.05,59.38-76.49,39.58-112.82,2.31-.23,4.49-.34,6.65-.34,8.19,0,19.1,1.7,24.54,9.78,5.59,8.3,4.63,21.85-2.85,40.27-13.02,31.47-35.78,55.1-54.07,74.09-1.75,1.82-3.46,3.59-5.1,5.31-.12,.12-16.78,16.53-32.62,36.86-3.66,4.93-15.91,22.2-21.09,38.85-.97,2.76-3,4.14-6.2,4.14Z"/><path class="cls-2" d="M182.93,238.56c-.17,0-.35,0-.52,0-5.69-.2-9.97-2.28-12.73-6.17-3.78-5.33-4.42-14.07-1.69-22.82,4.66-14.56,12.87-26.09,12.96-26.21,1.01-1.51,23.8-35.49,26.42-46.42h.03c1.71,.17,7.58,1.28,11.38,8.29l.04,.08,.05,.08c.23,.36,5.72,9.23-3.37,24.65-.05,.08-8.18,13-17.95,26.63-7.01,10.1-9.35,17.22-7.17,21.81,1.36,2.86,4.18,3.81,5.63,3.92h.3c5.31,0,12.73-5.74,22.69-17.57,7.89-9.37,14.8-19.54,16.73-22.43,.31-.47,.65-.61,.74-.61h3.22c-18.95,36.89-43.29,56.79-56.78,56.79h0Zm39.43-104.68c-1.44,0-2.7-.39-3.56-1.09-.19-.16-4.38-3.81-.36-12.34,.11-.22,2.59-5.36,7.89-5.36,.54,0,1.1,.05,1.67,.16,3.63,.54,5,3.07,5.51,4.53,1.07,3.1,.23,6.83-2.09,9.27l-.07,.08c-2.56,3.02-5.84,4.75-9,4.75Z"/><path class="cls-2" d="M290.34,238.56c-.18,0-.35,0-.52,0-5.54-.2-9.72-2.24-12.43-6.08-3.79-5.35-4.43-14.13-1.68-22.92,4.37-14.56,12.58-26.41,12.67-26.53,2.42-3.72,4.23-6.37,5.99-8.92,1.11-1.62,2.19-3.2,3.36-4.95,4.28-6.49,5.62-10.43,4.35-12.79-.6-1.11-1.75-1.77-3.08-1.77-.2,0-.35,.01-.45,.03-11.82,1.02-32.39,35.07-36.4,41.89-8.55,14.25-15.02,28.04-18.13,35.04-2.47,4.65-5.6,5.24-8.06,5.24-.38,0-.75-.02-1.12-.04h-.15c-1.85,0-3.28-.7-4.85-1.74-8.1-6.31-9.21-18.3-3.2-34.69,2.54-7.34,5.64-13.46,11.85-23.4,.95-1.43,23.54-35.68,26.32-46.77,2.67,.7,6.88,2.69,9.59,8.36,.24,.48,5.33,10.99-3.77,24.5-.09,.13-8.54,12.83-15.11,24.18-3.79,7-7.76,15.16-10.64,21.88l3.56,1.8c7.22-12.34,16.85-28.26,27.25-41.92,.11-.16,5.9-8.51,13.92-16.73,10.36-10.62,19.69-16.23,26.98-16.23,3.33,0,6.22,1.13,8.82,3.46,11.54,10.35,.29,28.29-5.09,35.53-.1,.13-9.48,12.87-16.96,25.44-5.21,8.5-6.95,14.71-5.15,18.45,.66,1.38,2.14,3.1,5.42,3.51,.28,.03,.55,.05,.82,.05,9.92,0,26.52-21.77,38.7-40.04,.36-.54,.73-.61,1.04-.61h2.93c-10.6,20.97-22,34.18-29.76,41.62-10.06,9.64-19.91,15.17-27.02,15.17Z"/><path class="cls-2" d="M343.37,243.67c-4.21,0-8.81-1.05-12.01-2.74-8.11-5.01-7.14-15.41-7.13-15.51,.53-9.53,4.81-20.48,13.87-35.58,11.55-19.25,32.18-47.4,32.39-47.68,7.64-10.69,14.09-21.77,19.39-31.19l1.22-2.16-2.37-.73c-2.86-.88-4.71-2.29-5.51-4.2-.7-1.67-.53-3.52-.19-4.96,2.32,1.1,5.97,1.63,11.13,1.63h1.26l.55-1.13c7.67-15.9,12.4-29.28,13.12-34.28l.02-.14v-.14c0-.56,.41-.71,.65-.71,.12,0,.24,.03,.37,.09,25.21,11.35,25.7,20.98,22.49,29.71l-1.14,3.11,3.28-.43c10.79-1.42,22.98-2.94,31.07-2.94,2.73,0,4.9,.17,6.46,.51,6.1,1.29,5.59,6.98,5.09,9.37-.44,2.2-1.37,4.36-2.13,5.88-5.25-3.52-16.75-4.03-26.71-4.03-6.18,0-13.37,.25-21.97,.78l-1.05,.06-.54,.9c-.42,.69-.91,1.4-1.43,2.14-.52,.74-1.06,1.51-1.53,2.3-1.29,1.8-28.02,38.92-41.11,55.21-2.15,2.74-4.25,5.38-6.29,7.95-10.6,13.35-19.75,24.87-24.65,35.17-2.48,5.35-2.76,9.57-.84,12.57,2.25,3.52,6.73,4.26,10.09,4.26,1.16,0,2.04-.09,2.35-.13,12.58-.56,41.42-38.28,45.16-44.26,.2-.31,.79-.57,1.01-.57h2.93c-18.61,36.67-46.57,59.09-63.7,61.61-1.12,.19-2.3,.28-3.55,.28Z"/><path class="cls-2" d="M457.03,238.55c-2.43,0-4.39-.83-5.99-2.55-5.64-6.06-4.77-20.73-4.65-22.38l.53-7.46-4.19,6.2c-6.65,9.85-17.19,21.6-29.66,21.6h0c-1.45,0-2.92-.16-4.36-.47-5.17-1.21-8.64-3.88-10.57-8.14-7.02-15.45,8.75-45.53,8.91-45.83,10.13-19.38,22.39-31.08,30.88-37.48,9.94-7.49,20.44-11.95,28.1-11.95,2.06,0,3.81,.33,5.2,.97,6.8,2.99,7.92,8.71,8.17,12.75l.3,4.75,3.19-3.54c2.68-2.98,4.74-5.04,6.25-6.54l.08-.08,.07-.09c.77-.96,2.26-1.66,3.55-1.66h20.76c-7.32,7.48-31.16,33.04-42.16,59.2-5.38,12.5-6.75,20.47-4.18,24.37,1.05,1.6,2.61,2.17,3.62,2.17h.15c11.83,0,33.17-30.62,39.42-40,.36-.54,.73-.61,1.04-.61h2.92c-10.87,21.15-22.42,34.37-30.28,41.79-10.09,9.52-19.97,14.99-27.1,14.99Zm10.95-93.34c-7.53,0-19.03,10.54-31.55,28.93-15.39,22.42-22.05,37.01-19.78,43.37,.58,1.62,1.68,2.46,2.52,2.71l.15,.04,.16,.02c.45,.06,.91,.08,1.37,.08,6.42,0,13.65-5.29,22.12-16.19,.63-.84,1.24-1.69,1.85-2.54,1.16-1.61,2.36-3.27,3.5-4.61l.07-.09c8.23-10.78,16.03-22.87,20.59-30.58,2.51-4.53,3.61-7.61,4.27-9.46,.15-.42,.27-.77,.38-1.05l.04-.12,.03-.12c.89-3.37,.57-6.28-.9-8.18-.78-1.01-2.25-2.22-4.83-2.22Z"/><path class="cls-2" d="M502.88,301.75c-4.48,0-8.97-1.14-13.34-3.4-3.34-1.73-7.33-5.68-8.48-11.56-1.41-7.2,1.73-15.56,9.08-24.17,.16-.19,16.05-18.49,42.74-18.49,1.72,0,3.48,.08,5.21,.23l1.41,.12,.58-1.29c4.21-9.32,7.58-19.33,9.76-28.97l-3.62-1.54c-5.24,7.95-15.98,21.3-29.05,21.3h0c-1.44,0-2.9-.16-4.34-.49-5.27-1.23-8.79-3.91-10.74-8.22-7-15.45,8.89-45.45,9.06-45.75,10.14-19.4,22.33-31.09,30.77-37.49,9.88-7.48,20.32-11.95,27.93-11.95,2.05,0,3.8,.33,5.19,.97,6.76,2.97,8.17,8.51,8.17,12.63v5.21l3.49-3.87c2.68-2.98,4.74-5.04,6.25-6.54,1.17-1.17,2.49-1.82,3.7-1.82h20.78c-8.99,9.46-29.1,34.84-39.47,59.5-.11,.25-2.75,6.42-4.55,11.54-.38,.98-.92,2.44-1.59,4.23-2.71,7.31-7.75,20.91-14.28,34.7l-.99,2.09,2.79,.86c22.17,6.84,38.2,11.78,48.41,11.78h0c4.16,0,7.4-.81,9.86-2.47,.13,4.64-.67,10.45-4.52,14.59-3.37,3.63-8.67,5.47-15.76,5.47-2.42,0-5.08-.22-7.9-.64-13.61-2.13-24.5-7.63-35.03-12.95-1.07-.54-2.13-1.08-3.19-1.61l-1.67-.83-.95,1.61c-6.59,11.2-24.22,37.24-45.69,37.24h0Zm20.79-46.45c-10.08,0-20.08,4.08-27.42,11.2-.43,.43-10.44,10.35-9.71,19.01,.26,3.09,1.79,5.63,4.54,7.54,1.72,1.2,3.64,1.81,5.71,1.81,9.07,0,20.96-12.05,35.35-35.82l1.45-2.39-2.73-.6c-2.28-.5-4.7-.75-7.2-.75Zm48.11-110.09c-7.53,0-19.03,10.54-31.55,28.93-15.39,22.42-22.05,37.01-19.78,43.37,.58,1.62,1.68,2.46,2.52,2.71l.16,.04,.16,.02c.46,.06,.93,.08,1.4,.08,8.31,0,16.58-8.77,22.06-16.16,1.75-2.01,3.26-4.16,4.6-6.06,.31-.44,.6-.86,.89-1.26,8.19-10.73,15.99-22.82,20.55-30.53,3.58-6.44,4.5-9.66,4.74-10.79,.87-3.35,.55-6.23-.91-8.13-.78-1.01-2.25-2.22-4.83-2.22Z"/><path class="cls-2" d="M619.08,241.24c-5.12,0-8.38-.81-8.41-.82-7.65-1.96-12.89-6.05-15.58-12.15-8-18.14,7.96-48.45,8.12-48.75,18.8-35.96,46.16-49.35,59-49.35,2.04,0,3.81,.31,5.26,.91,9.3,3.62,7.83,17.95,7.81,18.09v.15c-.06,1.36-1.86,33.44-48.99,36.58l-1.05,.07-.54,.91c-2.52,4.28-5.95,10.75-8.01,17.26-3.86,11.59-2.55,19.72,3.72,22.85,2.65,1.46,5.74,2.22,9.11,2.22,3.76,0,7.84-.93,12.13-2.77,11.43-5.25,20.78-15.71,21.17-16.16,8.46-9.01,17.06-21.15,20.73-26.34l1.07-1.5c.35-.52,.69-.67,.78-.67h2.94c-7.07,14.07-15.57,25.23-22.24,33.45-9.22,11.32-19.36,19.11-30.14,23.16-5.45,1.89-11.14,2.86-16.87,2.86Zm44.74-95.97c-7.26,0-18.13,9.71-30.61,27.34l-2.1,2.97,3.64,.18c.48,.02,.96,.04,1.44,.04,6.36,0,12.57-1.97,15.92-3.92,8.85-4.94,14.5-10.15,16.78-15.46,1.87-4.35,.73-7.21,.6-7.53-.97-2.3-3.03-3.63-5.65-3.63Z"/><path class="cls-2" d="M956.72,303.71c-44.23,0-85.38-17.71-102.95-25.27l-39.14-16.78-.96,.94c-26.21,25.7-58.35,40.44-88.18,40.44-4.42,0-8.79-.33-13.02-.97-.25-.04-22.18-3.2-32.32-17.61-4.86-6.89-6.28-15.35-4.23-25.14,.2-1.17,5.04-26.95,36.21-30.92l1.14-.15,.45-1.05c6.05-14.2,17.72-29.99,29.01-45.25,17.99-24.33,36.59-49.49,35.84-71.74h0s.04-.03,.08-.06h.17c8.08,.64,18.01,3.24,21.61,8.67,1.69,2.55,1.92,5.55,.71,9.18-3.94,12.11-15.46,28.32-27.66,45.47-11.62,16.34-24.79,34.86-33.62,52.97l-1.24,2.54,2.81,.32c15.32,1.77,30.75,5.58,45.85,11.32l14.03,5.01,.89-1.13c9.21-11.67,17.7-25.98,25.22-42.53,22.1-48.01,22.49-87.23,1.06-107.58-10.73-10.35-26.56-12.53-37.94-12.53-6.7,0-11.48,.75-12.15,.87-38.64,3.99-62.65,37.61-63.65,39.04-18.39,25.75-16.66,47.11-15.07,55.1l.21,.13c-8.95-3.12-14.9-8.48-17.71-15.94-7.12-18.96,7.8-45.61,7.96-45.87,24.21-41.85,63.98-48.1,85.53-48.1,9.52,0,15.78,1.22,15.84,1.23l.13,.02c.25,.03,25.3,3.46,45.96,19.75,13.55,10.63,22.38,24.36,26.26,40.82,4.89,20.75,1.62,45.31-9.72,72.99-7.22,17.9-17.13,34.32-29.46,48.81l-1.92,2.26,2.81,.94c11.6,3.87,22.36,7.11,31.12,9.37,26.92,7.5,58.18,15.18,85.72,15.18s47.79-8.16,59.04-24.27c4.83,7.62,11.71,21.5,6.33,32.35-4.7,9.47-17.76,15.1-38.82,16.73-4,.3-8.11,.46-12.24,.46Zm-250.61-61.3c-13,6.98-15.93,20.05-16.05,20.6-2.03,8.22-1.07,15.14,2.86,20.5,6.97,9.5,20.65,10.46,21.23,10.49,1.3,.1,2.69,.15,4.08,.15,24.17,0,52.04-14.46,74.54-38.69l1.98-2.14-2.71-1.08c-2.27-.91-4.34-1.81-6.17-2.6l-1.69-.73s-2.39-.78-3.55-1.17c-11.9-3.93-25.4-8.38-44.57-9.49l-1.48-.08-.51,1.38c-5.31,14.28-6.78,26.41-4.47,37.06-3.74-.69-10.49-3.23-15.28-9.21-4.65-5.82-6.43-13.55-5.27-22.99l.47-3.83-3.4,1.82Z"/><path class="cls-2" d="M884.75,241.24c-5.12,0-8.38-.81-8.41-.82-7.65-1.96-12.89-6.05-15.58-12.15-8-18.14,7.96-48.45,8.12-48.75,18.79-35.96,46.16-49.35,59-49.35,2.04,0,3.81,.31,5.26,.91,9.3,3.62,7.83,17.95,7.81,18.09v.15c-.06,1.36-1.86,33.44-48.99,36.58l-1.05,.07-.54,.91c-2.52,4.28-5.95,10.75-8.01,17.26-3.86,11.59-2.55,19.72,3.72,22.85,2.65,1.46,5.74,2.22,9.11,2.22,3.76,0,7.84-.93,12.13-2.77,11.43-5.25,20.78-15.71,21.17-16.16,8.45-9,17.05-21.14,20.72-26.33l1.08-1.52c.35-.52,.69-.67,.78-.67h2.94c-7.07,14.07-15.57,25.23-22.24,33.45-9.22,11.32-19.36,19.11-30.14,23.16-5.45,1.89-11.14,2.86-16.87,2.86Zm44.74-95.97c-7.26,0-18.13,9.71-30.61,27.34l-2.1,2.97,3.64,.18c.48,.02,.96,.04,1.44,.04,6.36,0,12.57-1.97,15.92-3.92,8.85-4.94,14.5-10.15,16.78-15.46,1.87-4.35,.73-7.21,.6-7.53-.97-2.3-3.03-3.63-5.65-3.63Z"/><path class="cls-2" d="M947.5,249.17c-.66,0-1.34-.03-2.01-.08h-.36c-.91,0-9.09-.16-14.66-5.47-6.88-6.09-4.58-15.41-4.56-15.51,2.64-10.2,10.57-17.21,24.23-21.45l1.63-.5-.24-1.69c-.55-3.85-1.32-6.66-2.14-9.64l-.33-1.2-.02-.07c-.1-.3-10.08-30.04,12.41-50.82,3.67-3.27,8.45-5.15,13.08-5.15s8.36,1.68,11.17,4.74c1.66,1.66,2.97,3.81,3.75,6.1-.04,.13-.18,.37-.38,.51-.27,.17-.65,.39-1.06,.64-5.88,3.51-19.63,11.73-15.75,32.98,.03,.13,1.8,8.78,2.68,18.47l.16,1.73,1.74,.08c7.78,.37,14.33,1.56,20.01,3.62l-1.56,2.08c-.85,.81-1.88,1.32-2.72,1.32-.2,0-.39-.03-.56-.09l-.16-.05-.17-.03c-3.16-.49-6.89-1.01-11.09-1.01-.96,0-1.93,.03-2.87,.08l-2,.12,.12,2c.33,5.53,.2,10.51-1.44,16.83-2.6,10.41-12.91,21.45-26.89,21.45h0Zm2.59-34.27c-10.57,3.72-16.67,7.91-18.66,12.82-1.16,2.88-.93,5.98,.68,9.21l.5,1,1.11,.1c.97,.09,1.9,.13,2.79,.13h0c6.15,0,10.42-2.03,13.07-6.2,2.16-3.41,3.17-8.23,3.17-15.18v-2.82l-2.66,.94Z"/><path class="cls-2" d="M1001.3,238.56c-.17,0-.35,0-.52,0-5.69-.2-9.97-2.28-12.73-6.17-3.78-5.33-4.42-14.07-1.69-22.82,4.65-14.53,12.87-26.09,12.95-26.21,1.01-1.51,23.8-35.49,26.42-46.42h.03c1.71,.17,7.58,1.28,11.38,8.29l.04,.08,.05,.08c.23,.36,5.72,9.23-3.37,24.65-.05,.08-8.18,13-17.96,26.63-7.01,10.1-9.35,17.22-7.17,21.81,1.36,2.86,4.18,3.81,5.63,3.92h.3c5.31,0,12.73-5.74,22.69-17.57,7.89-9.37,14.8-19.54,16.73-22.43,.31-.47,.65-.61,.74-.61h3.22c-18.95,36.89-43.29,56.79-56.78,56.79h0Zm39.43-104.68c-1.44,0-2.7-.39-3.56-1.09-.19-.16-4.38-3.81-.36-12.34,.11-.22,2.59-5.36,7.89-5.36,.54,0,1.1,.05,1.67,.16,3.63,.54,5.01,3.07,5.51,4.53,1.07,3.1,.23,6.83-2.09,9.27l-.07,.08c-2.56,3.02-5.84,4.75-8.99,4.75Z"/><path class="cls-2" d="M1046.25,301.75c-4.48,0-8.97-1.14-13.34-3.4-3.34-1.73-7.33-5.68-8.48-11.56-1.41-7.2,1.73-15.56,9.08-24.17,.16-.19,16.05-18.49,42.74-18.49,1.72,0,3.48,.08,5.21,.23l1.41,.12,.58-1.29c4.21-9.32,7.58-19.33,9.76-28.97l-3.62-1.54c-5.24,7.95-15.98,21.3-29.05,21.3h0c-1.44,0-2.9-.16-4.34-.49-5.27-1.23-8.79-3.91-10.74-8.22-7-15.45,8.89-45.45,9.06-45.75,10.14-19.4,22.33-31.09,30.77-37.49,9.88-7.48,20.32-11.95,27.93-11.95,2.05,0,3.8,.33,5.19,.97,6.76,2.97,8.17,8.51,8.17,12.63v5.21l3.49-3.87c2.68-2.98,4.74-5.04,6.25-6.54,1.17-1.17,2.49-1.82,3.7-1.82h20.78c-8.99,9.46-29.1,34.84-39.47,59.5-.11,.25-2.75,6.42-4.55,11.54-.38,.98-.92,2.44-1.59,4.23-2.71,7.31-7.75,20.91-14.28,34.7l-.99,2.09,2.79,.86c22.17,6.84,38.2,11.78,48.41,11.78h0c4.16,0,7.4-.81,9.86-2.47,.13,4.64-.67,10.45-4.52,14.59-3.37,3.63-8.67,5.47-15.76,5.47-2.42,0-5.08-.22-7.9-.64-13.61-2.13-24.5-7.63-35.03-12.95-1.07-.54-2.13-1.08-3.19-1.61l-1.67-.83-.95,1.61c-6.59,11.2-24.22,37.24-45.69,37.24h0Zm20.79-46.45c-10.08,0-20.08,4.08-27.42,11.2-.43,.43-10.44,10.35-9.71,19.01,.26,3.09,1.79,5.63,4.54,7.54,1.72,1.2,3.64,1.81,5.71,1.81,9.07,0,20.96-12.05,35.35-35.82l1.45-2.39-2.73-.6c-2.28-.5-4.7-.75-7.2-.75Zm48.11-110.09c-7.53,0-19.03,10.54-31.55,28.93-15.39,22.42-22.05,37.01-19.78,43.37,.58,1.62,1.68,2.46,2.52,2.71l.16,.04,.16,.02c.46,.06,.93,.08,1.4,.08,8.31,0,16.58-8.77,22.06-16.16,1.75-2,3.25-4.15,4.58-6.04,.31-.44,.61-.87,.9-1.27,8.19-10.73,15.99-22.82,20.55-30.53,3.58-6.44,4.5-9.66,4.74-10.79,.87-3.35,.55-6.23-.91-8.13-.78-1.01-2.25-2.22-4.83-2.22Z"/><path class="cls-2" d="M1201.08,238.56c-.18,0-.35,0-.52,0-5.54-.2-9.72-2.24-12.43-6.08-3.79-5.35-4.43-14.13-1.69-22.92,4.37-14.56,12.58-26.41,12.67-26.53,2.42-3.72,4.23-6.36,5.99-8.92,1.11-1.62,2.19-3.2,3.37-4.96,4.28-6.49,5.62-10.43,4.35-12.79-.6-1.11-1.75-1.77-3.08-1.77-.2,0-.35,.01-.45,.03-11.82,1.02-32.39,35.07-36.4,41.89-8.55,14.25-15.02,28.04-18.13,35.04-2.47,4.65-5.6,5.24-8.06,5.24-.38,0-.75-.02-1.12-.04h-.15c-1.85,0-3.28-.7-4.85-1.74-8.1-6.31-9.2-18.3-3.2-34.69,2.54-7.34,5.64-13.46,11.85-23.4,.95-1.43,23.54-35.68,26.32-46.77,2.67,.7,6.88,2.69,9.59,8.36,.24,.48,5.33,10.99-3.77,24.5-.09,.13-8.54,12.83-15.12,24.18-3.79,7-7.76,15.16-10.64,21.88l3.56,1.8c7.22-12.34,16.85-28.26,27.25-41.92,.11-.16,5.9-8.51,13.92-16.73,10.36-10.62,19.69-16.23,26.98-16.23,3.33,0,6.22,1.13,8.82,3.46,11.54,10.35,.29,28.29-5.09,35.53-.1,.13-9.48,12.87-16.96,25.44-5.21,8.5-6.95,14.71-5.15,18.45,.66,1.38,2.14,3.11,5.42,3.51,.28,.03,.55,.05,.82,.05,9.93,0,26.52-21.77,38.7-40.04,.36-.54,.73-.61,1.04-.61h2.93c-10.6,20.97-22,34.18-29.76,41.62-10.06,9.64-19.91,15.17-27.02,15.17Z"/><path class="cls-2" d="M1251.38,249.17c-.66,0-1.34-.03-2.01-.08h-.36c-.91,0-9.09-.16-14.66-5.47-6.88-6.09-4.58-15.41-4.56-15.51,2.64-10.2,10.57-17.21,24.23-21.45l1.63-.5-.24-1.69c-.55-3.85-1.32-6.66-2.14-9.64l-.33-1.2-.02-.07c-.1-.3-10.08-30.04,12.41-50.82,3.67-3.27,8.45-5.15,13.08-5.15s8.36,1.68,11.17,4.74c1.66,1.66,2.97,3.81,3.75,6.1-.04,.13-.18,.37-.38,.51-.27,.17-.65,.39-1.06,.64-5.88,3.51-19.63,11.73-15.75,32.98,.03,.13,1.8,8.78,2.68,18.47l.16,1.73,1.74,.08c7.78,.37,14.33,1.56,20.01,3.62l-1.56,2.08c-.85,.81-1.88,1.32-2.72,1.32-.2,0-.39-.03-.56-.09l-.16-.05-.17-.03c-3.16-.49-6.89-1.01-11.09-1.01-.96,0-1.93,.03-2.87,.08l-2,.12,.12,2c.33,5.53,.2,10.51-1.44,16.83-2.6,10.41-12.91,21.45-26.89,21.45h0Zm2.59-34.27c-10.57,3.72-16.67,7.91-18.66,12.82-1.16,2.88-.93,5.98,.68,9.21l.5,1,1.11,.1c.97,.09,1.9,.13,2.79,.13h0c6.15,0,10.42-2.03,13.07-6.2,2.16-3.41,3.17-8.23,3.17-15.18v-2.82l-2.66,.94Z"/></g></g></g></g></g></svg>